<svg xmlns="http://www.w3.org/2000/svg" version="1.1" xmlns:xlink="http://www.w3.org/1999/xlink" xmlns:svgjs="http://svgjs.dev/svgjs" width="100%" height="100%" viewBox="0 0 1000 600"><rect width="1000" height="600" x="0" y="0" fill="#4a171e"/><g><rect width="333.3333333333333" height="333.3333333333333" y="248.75036595246567" fill="#E2V144" transform="matrix(0.5518078307674359,0,0,0.5518078307674359,0,70.7696377945682)" x="226.5281219482422"/><path d="M415.21560047581283 357.73010994957934L415.21560047581283 340.613752102807L463.8384232589266 340.613752102807L463.8384232589266 357.73010994957934L451.1065511660072 357.73010994957934L451.1065511660072 490.417015359452L425.8114410476243 490.417015359452L356.13746551043425 366.21802467819225L356.13746551043425 473.4130802243169L371.53937700473847 473.4130802243169L371.53937700473847 490.417015359452L322.9446598995341 490.417015359452L322.9446598995341 473.4130802243169L336.7726534309167 473.4130802243169L336.7726534309167 357.73010994957934L322.5511804088037 357.73010994957934L322.5511804088037 340.41701235744176L362.85472253076034 340.41701235744176L431.235836884122 463.4355645665103L432.0227958655828 458.6857049998362L432.0227958655828 357.73010994957934L415.21560047581283 357.73010994957934Z " fill="#4a171e" transform="matrix(0.5518078307674359,0,0,0.5518078307674359,0,70.7696377945682)"/><path d="M643.1948037778099 358.56987794066936L643.1948037778099 341.94567550390065L747.4168151137424 341.94567550390065L747.4168151137424 383.1376647930369L727.7352880909012 383.1376647930369L727.7352880909012 358.56987794066936L675.8153652095646 358.56987794066936L675.8153652095646 405.30326804206186L725.824460224606 405.30326804206186L725.824460224606 421.40881720083615L675.8153652095646 421.40881720083615L675.8153652095646 470.92655647883026L690.3922520753026 470.92655647883026L690.3922520753026 487.4415687518107L643.1948037778099 487.4415687518107L643.1948037778099 470.92655647883026L657.0073594970298 470.92655647883026L657.0073594970298 358.56987794066936L643.1948037778099 358.56987794066936ZM807.0073470012072 487.4415687518107L807.0073470012072 478.2149999116993Q801.3294584842156 483.5107228554319 794.4777757064998 486.8683203919221Q787.6260929287839 490.22591792841234 778.8908798257199 490.22591792841234L778.8908798257199 490.22591792841234Q771.6024363928509 490.22591792841234 765.4877872207061 487.932924488858Q759.4004355895083 485.6126335083566 754.9782339560821 481.6271925300837Q750.5833298636031 477.6417515518107 748.1265511783663 472.3733261490253Q745.6697724931296 467.10490074623976 745.6697724931296 461.1540368197774L745.6697724931296 461.1540368197774Q745.6697724931296 454.82100732005597 747.5533028184777 449.9074499495825Q749.436833143826 445.021190120056 752.5487528117925 441.4179147150421Q755.660672479759 437.8146393100282 759.8371962446615 435.3851581657386Q764.013720009564 432.9283794805018 768.5724093477255 431.4543122693597Q773.1310986858871 429.9529475172706 777.8808708106781 429.3251040754879Q782.6306429354692 428.6972606337052 786.943654405107 428.6972606337052L786.943654405107 428.6972606337052Q793.849932264717 428.6972606337052 798.5724068485611 429.1340212888584Q803.2675838914579 429.57078194401157 807.0892396240484 430.33511309052966L807.0892396240484 430.33511309052966L807.1984297878367 422.17314834735424Q807.1984297878367 416.90472294456873 805.6697674948006 413.0284721300841Q804.1138076608172 409.12492377465236 801.3294584842156 406.58625246657436Q798.5724068485611 404.04758115849637 794.6688584931293 402.79189427493094Q790.7926076786446 401.5635049323126 785.9882404719594 401.5635049323126L785.9882404719594 401.5635049323126Q781.484146215692 401.5635049323126 777.3622175326838 402.1640508331482Q773.2129913087283 402.79189427493094 769.6370134446615 403.8019032899727Q766.0337380396476 404.81191230501446 763.0037109945222 406.1221942704741Q759.9736839493969 407.4051786949866 757.8717732964722 408.8519483651816L757.8717732964722 408.8519483651816L752.002801992851 396.4588647752095Q755.5787798569178 394.1658713356552 759.7826011627674 392.2004483874658Q764.013720009564 390.2350254392764 768.6543019705668 388.8428508509756Q773.3221814725166 387.45067626267473 778.1538462201488 386.6317500342625Q783.0128085087283 385.81282380585026 787.7079855516251 385.81282380585026L787.7079855516251 385.81282380585026Q796.361306031848 385.81282380585026 803.2675838914579 387.887436917828Q810.173861751068 389.9347524888586 814.9782289577531 394.2477639584964Q819.7552986234913 398.5880729690814 822.3485650134634 405.24867296016765Q824.9418314034356 411.90927295125397 824.9418314034356 421.2177344142066L824.9418314034356 421.2177344142066L824.8599387805943 470.92655647883026L835.8881453232126 470.92655647883026L835.8881453232126 487.4415687518107L807.0073470012072 487.4415687518107ZM782.8217257220988 475.26686548941524L782.8217257220988 475.26686548941524Q786.3704060452185 475.26686548941524 789.9190863683382 474.3933441791088Q793.467766691458 473.5198228688024 796.6342814413188 472.0457556576603Q799.8007961911794 470.5443909055712 802.5032527449398 468.57896795738185Q805.1784117577532 466.6135450091924 807.0073470012072 464.5116343562676L807.0073470012072 464.5116343562676L807.0892396240484 442.0457581568249L786.3704060452185 442.0457581568249Q781.1838732652742 442.0457581568249 776.9254568775306 443.192254876602Q772.6397429488397 444.33875159637915 769.5278232808732 446.5498524130922Q766.4159036129066 448.76095322980535 764.6961585332409 452.0366581434543Q762.949115912628 455.2850655161563 762.949115912628 459.51618436295286L762.949115912628 459.51618436295286Q762.949115912628 463.4470302593317 764.3958855828231 466.36786714066875Q765.842655253018 469.31600156295286 768.4632191839373 471.28142451114223Q771.1110806558036 473.24684745933166 774.7689511427116 474.2568564743734Q778.3995240886726 475.26686548941524 782.8217257220988 475.26686548941524ZM848.3631215360259 404.51163935459664L848.3631215360259 388.0239246225633L882.7307255883934 388.0239246225633L882.7307255883934 404.51163935459664L873.4222641254408 404.51163935459664L897.9900509778083 473.05576467270214L921.9845894702873 404.51163935459664L915.9245353800367 404.51163935459664L915.9245353800367 388.0239246225633L947.3986000920142 388.0239246225633L947.3986000920142 404.51163935459664L938.8544697755797 404.51163935459664L906.3430985076134 488.9702310448469L888.6815895148558 488.9702310448469L856.2248133287835 404.51163935459664L848.3631215360259 404.51163935459664ZM960.8289902379752 404.51163935459664L960.8289902379752 388.0239246225633L993.2857664240473 388.0239246225633L993.2857664240473 470.92655647883026L1008.2448188630444 470.92655647883026L1008.2448188630444 487.4415687518107L961.0200730246047 487.4415687518107L961.0200730246047 470.92655647883026L975.2420918580308 470.92655647883026L975.2420918580308 404.51163935459664L960.8289902379752 404.51163935459664ZM971.8844943215406 352.8100968008365L971.8844943215406 352.8100968008365Q971.8844943215406 350.2987230337056 972.8945033365824 348.0603246760454Q973.9045123516241 345.7946287774382 975.5696623493957 344.1021812387196Q977.2621098881143 342.437031240948 979.5551033276686 341.42702222590617Q981.8480967672228 340.4170132108644 984.4413631571949 340.4170132108644L984.4413631571949 340.4170132108644Q986.952736924326 340.4170132108644 989.1911352819861 341.42702222590617Q991.4568311805933 342.437031240948 993.1219811783649 344.1021812387196Q994.8144287170835 345.7946287774382 995.8244377321254 348.0603246760454Q996.8344467471671 350.2987230337056 996.8344467471671 352.8100968008365L996.8344467471671 352.8100968008365Q996.8344467471671 355.3760656498616 995.8244377321254 357.69635663036297Q994.8144287170835 359.98935006991724 993.1219811783649 361.76369023147714Q991.4568311805933 363.538030393037 989.1911352819861 364.5480394080788Q986.952736924326 365.55804842312057 984.4413631571949 365.55804842312057L984.4413631571949 365.55804842312057Q981.8480967672228 365.55804842312057 979.5551033276686 364.5480394080788Q977.2621098881143 363.538030393037 975.5696623493957 361.76369023147714Q973.9045123516241 359.98935006991724 972.8945033365824 357.69635663036297Q971.8844943215406 355.3760656498616 971.8844943215406 352.8100968008365ZM1114.4868482290606 414.5025393412261L1096.443173663044 414.5025393412261Q1092.403137602877 407.2959885311983 1086.233893348838 403.9383909947081Q1080.0373515538517 400.58079345821784 1071.8753868106764 400.58079345821784L1071.8753868106764 400.58079345821784Q1065.6515474747432 400.58079345821784 1060.1647417443812 403.17405984819Q1054.705233554966 405.7673262381621 1050.6106024129049 410.5716934448473Q1046.5432688117908 415.37606065153255 1044.1956802903424 422.2277434292484Q1041.848091768894 429.07942620696423 1041.848091768894 437.54166390055747L1041.848091768894 437.54166390055747Q1041.848091768894 445.89471143036246 1044.1956802903424 452.6099065033429Q1046.5432688117908 459.3251015763234 1050.665197494799 464.0748737011144Q1054.7871261778075 468.8246458259055 1060.2193368262754 471.36331713398346Q1065.6515474747432 473.90198844206145 1071.8753868106764 473.90198844206145L1071.8753868106764 473.90198844206145Q1081.1019556507877 473.90198844206145 1087.8990433466095 469.45248926768824Q1094.7234285833783 464.9756925523679 1098.7361671025983 456.3496696130922L1098.7361671025983 456.3496696130922L1113.531434295913 463.63811304596123Q1110.637894955523 469.78005975905313 1106.4340736496733 474.66631958857954Q1102.2029548028768 479.579876959053 1096.8799343181972 483.01936711838454Q1091.5569138335177 486.486154818663 1085.169289251902 488.34238760306414Q1078.7816646702863 490.22591792841234 1071.684304024047 490.22591792841234L1071.684304024047 490.22591792841234Q1061.3112384641584 490.22591792841234 1052.5487278201474 486.34966711392764Q1043.7589196351892 482.44611875849597 1037.3712950535737 475.45794827604476Q1030.983670471958 468.4424802526465 1027.434990148838 458.75185321643477Q1023.8863098257185 449.0612261802232 1023.8863098257185 437.54166390055747L1023.8863098257185 437.54166390055747Q1023.8863098257185 426.0221016208918 1027.6260729354678 416.33147458468017Q1031.365836045217 406.6408475484685 1037.9172458725152 399.6799746069644Q1044.441358158866 392.71910166546024 1053.149273720983 388.78825576908145Q1061.884486824047 384.85740987270265 1071.8753868106764 384.85740987270265L1071.8753868106764 384.85740987270265Q1081.2930384374172 384.85740987270265 1089.6733835081693 388.1058172454046Q1098.0810261198685 391.3815221590536 1104.4140556195898 397.9875270682457L1104.4140556195898 397.9875270682457L1114.4868482290606 397.9875270682457L1114.4868482290606 414.5025393412261ZM1130.6196949287819 437.732746687187L1130.6196949287819 437.732746687187Q1130.701587551623 425.9129114571035 1134.3867555794782 416.22228442089187Q1138.0992211482805 406.5316573846802 1144.7052260574728 399.5707844431761Q1151.338528507612 392.637209042619 1160.4559071839349 388.87014839192267Q1169.5732858602582 385.1303852821734 1180.5195997800352 385.1303852821734L1180.5195997800352 385.1303852821734Q1191.5478063226535 385.1303852821734 1200.7197800808708 388.87014839192267Q1209.8917538390879 392.637209042619 1216.4158661254387 399.48889182033486Q1222.9399784117898 406.3405745980507 1226.570551357751 416.03120163426235Q1230.228421844659 425.721828670474 1230.228421844659 437.54166390055747L1230.228421844659 437.54166390055747Q1230.228421844659 449.1431188030644 1226.570551357751 458.88834092117014Q1222.9399784117898 468.633563039276 1216.4158661254387 475.6490310626743Q1209.8917538390879 482.6372015451255 1200.7197800808708 486.54074990055716Q1191.5478063226535 490.41700071504187 1180.5195997800352 490.41700071504187L1180.5195997800352 490.41700071504187Q1169.2730129098402 490.41700071504187 1160.155634233517 486.56804744150423Q1151.0382555571941 482.7463917089138 1144.5141432708433 475.78551876740966Q1137.9900309844923 468.8246458259055 1134.3594580385313 459.1340187896938Q1130.701587551623 449.4433917534822 1130.6196949287819 437.732746687187ZM1149.509593264158 437.732746687187L1149.509593264158 437.732746687187Q1149.509593264158 446.2768770036215 1151.9663719493947 453.1831548632315Q1154.3958530936843 460.0894327228415 1158.681567022375 464.9483950114208Q1162.9399834101189 469.78005975905313 1168.5632768452163 472.42792123091937Q1174.1865702803138 475.04848516183864 1180.5195997800352 475.04848516183864L1180.5195997800352 475.04848516183864Q1187.1256046892272 475.04848516183864 1192.8307907471658 472.4825163128135Q1198.563274346052 469.88924992284143 1202.7670956519014 465.03028763426204Q1206.998214498698 460.1986228866297 1209.4003981020405 453.2650474860727Q1211.802581705383 446.35876962646273 1211.802581705383 437.732746687187L1211.802581705383 437.732746687187Q1211.802581705383 428.6972606337052 1209.4003981020405 421.709090151254Q1206.998214498698 414.6936221278557 1202.8216907337955 409.99844508495875Q1198.645166968893 405.30326804206186 1192.88538582906 402.90108443871924Q1187.1256046892272 400.4989008353766 1180.5195997800352 400.4989008353766L1180.5195997800352 400.4989008353766Q1174.1865702803138 400.4989008353766 1168.5632768452163 402.90108443871924Q1162.9399834101189 405.30326804206186 1158.681567022375 409.99844508495875Q1154.3958530936843 414.6936221278557 1151.9663719493947 421.709090151254Q1149.509593264158 428.6972606337052 1149.509593264158 437.732746687187ZM1314.9599889443798 487.4415687518107L1314.9599889443798 470.92655647883026L1328.963627450229 470.92655647883026L1328.963627450229 425.5307458838445Q1328.963627450229 414.12037376796707 1323.1765487694493 408.2241049233989Q1317.3621725477224 402.32783607883067 1306.5250487917338 402.32783607883067L1306.5250487917338 402.32783607883067Q1300.2739119148534 402.32783607883067 1293.940882415132 405.30326804206186Q1287.6078529154106 408.27870000529305 1281.9572619393662 412.6736040977721L1281.9572619393662 412.6736040977721L1281.9572619393662 470.92655647883026L1295.9609004452154 470.92655647883026L1295.9609004452154 487.4415687518107L1249.5004857532938 487.4415687518107L1249.5004857532938 470.92655647883026L1263.3403390134608 470.92655647883026L1263.3403390134608 404.51163935459664L1249.5004857532938 404.51163935459664L1249.5004857532938 388.0239246225633L1281.192930792848 388.0239246225633L1281.192930792848 399.7345696888585L1281.3840135794776 399.7345696888585Q1284.5505283293382 396.95022051225686 1288.126506193405 394.43884674512594Q1291.7297815984189 391.95477051894215 1295.6606274947976 390.1258352754881Q1299.6187709321237 388.2969000320341 1303.8771873198673 387.2595934760452Q1308.1629012485582 386.1949893791093 1312.858078291455 386.1949893791093L1312.858078291455 386.1949893791093Q1320.8289602480008 386.1949893791093 1327.2438823705636 388.4060901958224Q1333.6861020340734 390.61719101253544 1338.1901962903407 395.12128526880286Q1342.694290546608 399.62537952507023 1345.1510692318448 406.69544263036266Q1347.5805503761344 413.738208194708 1347.5805503761344 423.34694260807845L1347.5805503761344 423.34694260807845L1347.5805503761344 470.92655647883026L1361.4204036363014 470.92655647883026L1361.4204036363014 487.4415687518107L1314.9599889443798 487.4415687518107ZM1380.228409348836 475.8401138493038L1380.228409348836 475.8401138493038Q1380.228409348836 473.3287400821729 1381.2384183638778 471.0903417245127Q1382.2484273789196 468.8246458259055 1383.9681724585855 467.13219828718684Q1385.687917538251 465.46704828941523 1387.9536134368586 464.45703927437347Q1390.1920117945187 463.4470302593317 1392.7852781844908 463.4470302593317L1392.7852781844908 463.4470302593317Q1395.2966519516217 463.4470302593317 1397.5350503092818 464.45703927437347Q1399.800746207889 465.46704828941523 1401.4658962056606 467.13219828718684Q1403.1583437443792 468.8246458259055 1404.168352759421 471.0903417245127Q1405.178361774463 473.3287400821729 1405.178361774463 475.8401138493038L1405.178361774463 475.8401138493038Q1405.178361774463 478.4333802392759 1404.168352759421 480.7263736788302Q1403.1583437443792 483.01936711838454 1401.4658962056606 484.7937072799444Q1399.800746207889 486.56804744150423 1397.5350503092818 487.57805645654605Q1395.2966519516217 488.58806547158787 1392.7852781844908 488.58806547158787L1392.7852781844908 488.58806547158787Q1390.1920117945187 488.58806547158787 1387.9536134368586 487.57805645654605Q1385.687917538251 486.56804744150423 1383.9681724585855 484.7937072799444Q1382.2484273789196 483.01936711838454 1381.2384183638778 480.7263736788302Q1380.228409348836 478.4333802392759 1380.228409348836 475.8401138493038ZM1423.6042019137385 404.51163935459664L1423.6042019137385 388.0239246225633L1456.0336805588636 388.0239246225633L1456.0336805588636 470.92655647883026L1471.020030538808 470.92655647883026L1471.020030538808 487.4415687518107L1423.795284700368 487.4415687518107L1423.795284700368 470.92655647883026L1437.9900059928468 470.92655647883026L1437.9900059928468 404.51163935459664L1423.6042019137385 404.51163935459664ZM1434.6324084563566 352.8100968008365L1434.6324084563566 352.8100968008365Q1434.6324084563566 350.2987230337056 1435.6424174713984 348.0603246760454Q1436.6524264864404 345.7946287774382 1438.317576484212 344.1021812387196Q1440.0100240229308 342.437031240948 1442.3030174624848 341.42702222590617Q1444.6233084429864 340.4170132108644 1447.2165748329585 340.4170132108644L1447.2165748329585 340.4170132108644Q1449.7006510591423 340.4170132108644 1451.9663469577495 341.42702222590617Q1454.2047453154096 342.437031240948 1455.8971928541282 344.1021812387196Q1457.5623428519 345.7946287774382 1458.5723518669415 348.0603246760454Q1459.5823608819835 350.2987230337056 1459.5823608819835 352.8100968008365L1459.5823608819835 352.8100968008365Q1459.5823608819835 355.3760656498616 1458.5723518669415 357.69635663036297Q1457.5623428519 359.98935006991724 1455.8971928541282 361.76369023147714Q1454.2047453154096 363.538030393037 1451.9663469577495 364.5480394080788Q1449.7006510591423 365.55804842312057 1447.2165748329585 365.55804842312057L1447.2165748329585 365.55804842312057Q1444.6233084429864 365.55804842312057 1442.3030174624848 364.5480394080788Q1440.0100240229308 363.538030393037 1438.317576484212 361.76369023147714Q1436.6524264864404 359.98935006991724 1435.6424174713984 357.69635663036297Q1434.6324084563566 355.3760656498616 1434.6324084563566 352.8100968008365ZM1486.060975600646 437.732746687187L1486.060975600646 437.732746687187Q1486.1701657644344 425.9129114571035 1489.8553337922895 416.22228442089187Q1493.567799361092 406.5316573846802 1500.173804270284 399.5707844431761Q1506.8071067204232 392.637209042619 1515.9244853967464 388.87014839192267Q1525.0418640730693 385.1303852821734 1535.9881779928464 385.1303852821734L1535.9881779928464 385.1303852821734Q1547.0163845354648 385.1303852821734 1556.188358293682 388.87014839192267Q1565.333034510952 392.637209042619 1571.8571467973031 399.48889182033486Q1578.408556624601 406.3405745980507 1582.039129570562 416.03120163426235Q1585.6970000574702 425.721828670474 1585.6970000574702 437.54166390055747L1585.6970000574702 437.54166390055747Q1585.6970000574702 449.1431188030644 1582.039129570562 458.88834092117014Q1578.408556624601 468.633563039276 1571.8571467973031 475.6490310626743Q1565.333034510952 482.6372015451255 1556.188358293682 486.54074990055716Q1547.0163845354648 490.41700071504187 1535.9881779928464 490.41700071504187L1535.9881779928464 490.41700071504187Q1524.7415911226517 490.41700071504187 1515.6242124463283 486.56804744150423Q1506.5068337700054 482.7463917089138 1499.9827214836546 475.78551876740966Q1493.4586091973035 468.8246458259055 1489.8280362513426 459.1340187896938Q1486.1701657644344 449.4433917534822 1486.060975600646 437.732746687187ZM1504.9781714769692 437.732746687187L1504.9781714769692 437.732746687187Q1504.9781714769692 446.2768770036215 1507.434950162206 453.1831548632315Q1509.8644313064956 460.0894327228415 1514.1501452351863 464.9483950114208Q1518.40856162293 469.78005975905313 1524.0318550580275 472.42792123091937Q1529.655148493125 475.04848516183864 1535.9881779928464 475.04848516183864L1535.9881779928464 475.04848516183864Q1542.5941829020385 475.04848516183864 1548.2993689599773 472.4825163128135Q1554.0318525588632 469.88924992284143 1558.2356738647127 465.03028763426204Q1562.4667927115092 460.1986228866297 1564.8689763148518 453.2650474860727Q1567.2711599181944 446.35876962646273 1567.2711599181944 437.732746687187L1567.2711599181944 437.732746687187Q1567.2711599181944 428.6972606337052 1564.8689763148518 421.709090151254Q1562.4667927115092 414.6936221278557 1558.2902689466068 409.99844508495875Q1554.1137451817044 405.30326804206186 1548.3539640418717 402.90108443871924Q1542.5941829020385 400.4989008353766 1535.9881779928464 400.4989008353766L1535.9881779928464 400.4989008353766Q1529.655148493125 400.4989008353766 1524.0318550580275 402.90108443871924Q1518.40856162293 405.30326804206186 1514.1501452351863 409.99844508495875Q1509.8644313064956 414.6936221278557 1507.434950162206 421.709090151254Q1504.9781714769692 428.6972606337052 1504.9781714769692 437.732746687187Z " fill="#E2V144" transform="matrix(0.5518078307674359,0,0,0.5518078307674359,0,70.7696377945682)"/></g></svg>